<?xml version="1.0" encoding="utf-8"?>
<!-- Generator: Adobe Illustrator 24.1.1, SVG Export Plug-In . SVG Version: 6.00 Build 0)  -->
<svg version="1.1" id="Capa_1" xmlns="http://www.w3.org/2000/svg" xmlns:xlink="http://www.w3.org/1999/xlink" x="0px" y="0px"
	 viewBox="0 0 159 114" style="enable-background:new 0 0 159 114;" xml:space="preserve">
<style type="text/css">
	.st0{fill:#FFFFFF;stroke:#000000;stroke-width:12;stroke-miterlimit:10;}
	.st1{stroke:#000000;stroke-miterlimit:10;}
</style>
<path class="st0" d="M158.97,65.68c-0.86,24.96-22.81,48.34-47.78,48.34H47.83c-25.21,0-47.18-23.59-47.81-48.79
	c-0.58-22.99,15.36-44.36,36.78-49.1C39.37,6.84,47.89,0.02,58,0.02c9.7,0,17.94,5.28,20.86,14v0c0.37,1.09,1.91,1.09,2.28,0v0
	c2.92-8.72,11.16-14,20.86-14c10.2,0,18.78,6.94,21.27,16.36C144.29,21.56,159.75,42.87,158.97,65.68z"/>
<circle class="st1" cx="102" cy="22.02" r="7"/>
<circle class="st1" cx="58" cy="22.02" r="7"/>
<path class="st1" d="M114,52.02H49c-2.76,0-5-2.24-5-5v0c0-2.76,2.24-5,5-5h65c2.76,0,5,2.24,5,5v0
	C119,49.78,116.76,52.02,114,52.02z"/>
</svg>
