<?xml version="1.0" encoding="utf-8"?>
<!-- Generator: Adobe Illustrator 24.1.1, SVG Export Plug-In . SVG Version: 6.00 Build 0)  -->
<svg version="1.1" id="Capa_1" xmlns="http://www.w3.org/2000/svg" xmlns:xlink="http://www.w3.org/1999/xlink" x="0px" y="0px"
	 viewBox="0 0 159.88 117.57" style="enable-background:new 0 0 159.88 117.57;" xml:space="preserve">
<style type="text/css">
	.st0{fill:#FFFFFF;stroke:#000000;stroke-width:10;stroke-miterlimit:10;}
</style>
<path class="st0" d="M149.26,100.29l-0.01,0.01c-7.89,10.58-19.79,17.73-33.51,17.73h-72.6c-13.72,0-25.62-7.15-33.51-17.73
	l-0.01-0.01C3.01,91.43-0.79,80.16-0.48,68.68c0.62-22.6,15.29-47.24,36.64-52.07c0.05-0.02,0.1-0.03,0.15-0.04
	c2.49-9,10.56-15.68,20.26-16.09c0.26-0.02,0.53-0.02,0.8-0.02c0.3,0,0.6,0.01,0.9,0.02c4.51,0.15,8.66,1.45,12.07,3.71
	c3.64,2.41,6.43,5.91,7.89,10.27c0.19,0.55,0.67,0.83,1.14,0.83h0.14c0.48,0,0.95-0.28,1.14-0.83c1.46-4.36,4.25-7.86,7.89-10.27
	c3.41-2.26,7.56-3.56,12.07-3.71c0.25-0.02,0.5-0.02,0.76-0.02c0.32,0,0.63,0.01,0.94,0.02c9.7,0.41,17.77,7.09,20.26,16.09
	c0.05,0.01,0.1,0.02,0.15,0.04c21.35,4.83,36.02,29.47,36.64,52.07C159.67,80.16,155.87,91.43,149.26,100.29z"/>
<circle cx="101.51" cy="22.46" r="7"/>
<circle cx="57.51" cy="22.46" r="7"/>
<path d="M113.51,52.46h-65c-2.76,0-5-2.24-5-5v0c0-2.76,2.24-5,5-5h65c2.76,0,5,2.24,5,5v0C118.51,50.23,116.27,52.46,113.51,52.46z
	"/>
</svg>
